<svg version="1.1" preserveAspectRatio="none" xmlns="http://www.w3.org/2000/svg" width="500" height="500" viewBox="0 0 500 500"><rect width="100%" height="100%" fill="#FFFFFF" fill-opacity="1"/><svg viewBox="75.3898 104.9328 368.7356 288.3678" width="333" height="260.4209558285124" x="83.5px" y="119.7895px" xmlns="http://www.w3.org/2000/svg" xmlns:xlink="http://www.w3.org/1999/xlink" preserveAspectRatio="none"><defs></defs><style>.aLgOaV3zRcolors-3 {fill:#842416;fill-opacity:1;}.aLgOaV3zRcolors-4 {fill:#AE962C;fill-opacity:1;}.aLgOaV3zRcolors-5 {fill:#494B46;fill-opacity:1;}.aLgOaV3zRcolors-6 {fill:#67590C;fill-opacity:1;}.aLgOaV3zRcolors-7 {fill:#AEAEAE;fill-opacity:1;}.companyName {fill:#A95534;fill-opacity:1;}.icon1 {fill:#DFC13F;fill-opacity:1;}.icon2 {fill:#A95534;fill-opacity:1;}.icon3 {fill:#451813;fill-opacity:1;}.icon3-str {stroke:#451813;stroke-opacity:1;}.text {fill:#A95534;fill-opacity:1;}</style><g opacity="1" transform="rotate(0 120.1561 373.3006)">
<svg width="279.203" height="20" x="120.1561" y="373.3006" version="1.1" preserveAspectRatio="none" viewBox="4.16 -31 543.84 38.96">
  <g transform="matrix(1 0 0 1 0 0)" class="text"><path id="id-6izo4zJp25" d="M24.60 0L20.08 0L13.28-10.68Q12.96-10.64 12.32-10.64L12.32-10.64L8.04-10.64L8.04 0L4.16 0L4.16-28.92L11.88-28.92Q14.84-28.92 17.16-27.88Q19.48-26.84 20.80-24.82Q22.12-22.80 22.12-19.96L22.12-19.96Q22.12-17.28 20.94-15.04Q19.76-12.80 17.32-11.64L17.32-11.64L24.60 0ZM12.24-14.40Q15.36-14.40 16.74-16.04Q18.12-17.68 18.12-19.80L18.12-19.80Q18.12-21.08 17.54-22.32Q16.96-23.56 15.70-24.38Q14.44-25.20 12.52-25.20L12.52-25.20L8.04-25.20L8.04-14.40L12.24-14.40Z M40.88-2.80Q42.96-2.80 44.92-4.24L44.92-4.24L46.64-1.48Q45.32-0.60 43.78-0.10Q42.24 0.40 40.80 0.40L40.80 0.40Q38.04 0.40 35.98-0.74Q33.92-1.88 32.80-3.88Q31.68-5.88 31.68-8.40L31.68-8.40Q31.68-10.84 32.90-12.86Q34.12-14.88 36.24-16.06Q38.36-17.24 40.88-17.24L40.88-17.24Q44.12-17.24 46.30-15.34Q48.48-13.44 49.28-10.04L49.28-10.04L36.16-5.44Q36.88-4.20 38.10-3.50Q39.32-2.80 40.88-2.80L40.88-2.80ZM40.60-14.28Q38.32-14.28 36.84-12.68Q35.36-11.08 35.36-8.60L35.36-8.60Q35.36-8 35.40-7.68L35.40-7.68L45.04-11.24Q44.44-12.60 43.34-13.44Q42.24-14.28 40.60-14.28L40.60-14.28Z M68.92-16.56L73.08-16.56L64.24 0.48L64.04 0.48L54.84-16.56L59.28-16.56L64.28-6L68.92-16.56Z M79.24-8.44Q79.24-10.88 80.42-12.90Q81.60-14.92 83.70-16.08Q85.80-17.24 88.44-17.24L88.44-17.24Q91.08-17.24 93.14-16.08Q95.20-14.92 96.34-12.92Q97.48-10.92 97.48-8.44L97.48-8.44Q97.48-5.96 96.34-3.94Q95.20-1.92 93.12-0.76Q91.04 0.40 88.36 0.40L88.36 0.40Q85.76 0.40 83.68-0.70Q81.60-1.80 80.42-3.80Q79.24-5.80 79.24-8.44L79.24-8.44ZM83-8.40Q83-6.84 83.70-5.52Q84.40-4.20 85.62-3.44Q86.84-2.68 88.32-2.68L88.32-2.68Q90.64-2.68 92.16-4.32Q93.68-5.96 93.68-8.40L93.68-8.40Q93.68-10.84 92.16-12.50Q90.64-14.16 88.32-14.16L88.32-14.16Q86.80-14.16 85.60-13.38Q84.40-12.60 83.70-11.28Q83-9.96 83-8.40L83-8.40Z M106.48-31L110.20-31L110.20 0L106.48 0L106.48-31Z M132.36-16.56L136.08-16.56L136.08 0L132.72 0L132.48-3.16Q131.64-1.48 129.88-0.42Q128.12 0.64 125.96 0.64L125.96 0.64Q123.68 0.64 122.22-0.74Q120.76-2.12 120.68-4.32L120.68-4.32L120.68-16.56L124.40-16.56L124.40-5.64Q124.48-4.24 125.22-3.42Q125.96-2.60 127.44-2.56L127.44-2.56Q128.80-2.56 129.92-3.38Q131.04-4.20 131.70-5.64Q132.36-7.08 132.36-8.84L132.36-8.84L132.36-16.56Z M148.16-23.84L151.92-23.84L151.92-16.52L156.44-16.52L156.44-13.56L151.92-13.56L151.92 0L148.16 0L148.16-13.56L145.12-13.56L145.12-16.52L148.16-16.52L148.16-23.84Z M164.96-16.56L168.68-16.56L168.68 0L164.96 0L164.96-16.56ZM164.68-22.52Q164.68-23.40 165.36-24Q166.04-24.60 166.92-24.60L166.92-24.60Q167.80-24.60 168.46-24Q169.12-23.40 169.12-22.52L169.12-22.52Q169.12-21.64 168.46-21.04Q167.80-20.44 166.92-20.44L166.92-20.44Q166.04-20.44 165.36-21.04Q164.68-21.64 164.68-22.52L164.68-22.52Z M177.72-8.44Q177.72-10.88 178.90-12.90Q180.08-14.92 182.18-16.08Q184.28-17.24 186.92-17.24L186.92-17.24Q189.56-17.24 191.62-16.08Q193.68-14.92 194.82-12.92Q195.96-10.92 195.96-8.44L195.96-8.44Q195.96-5.96 194.82-3.94Q193.68-1.92 191.60-0.76Q189.52 0.40 186.84 0.40L186.84 0.40Q184.24 0.40 182.16-0.70Q180.08-1.80 178.90-3.80Q177.72-5.80 177.72-8.44L177.72-8.44ZM181.48-8.40Q181.48-6.84 182.18-5.52Q182.88-4.20 184.10-3.44Q185.32-2.68 186.80-2.68L186.80-2.68Q189.12-2.68 190.64-4.32Q192.16-5.96 192.16-8.40L192.16-8.40Q192.16-10.84 190.64-12.50Q189.12-14.16 186.80-14.16L186.80-14.16Q185.28-14.16 184.08-13.38Q182.88-12.60 182.18-11.28Q181.48-9.96 181.48-8.40L181.48-8.40Z M215.24-17.20Q217.56-17.20 219.08-15.82Q220.60-14.44 220.64-12.24L220.64-12.24L220.64 0L216.88 0L216.88-10.96Q216.80-12.36 216.04-13.16Q215.28-13.96 213.76-14L213.76-14Q211.56-14 210.12-12.24Q208.68-10.48 208.68-7.76L208.68-7.76L208.68 0L204.96 0L204.96-16.56L208.32-16.56L208.56-13.36Q209.44-15.16 211.20-16.18Q212.96-17.20 215.24-17.20L215.24-17.20Z M231.08-16.56L234.80-16.56L234.80 0L231.08 0L231.08-16.56ZM230.80-22.52Q230.80-23.40 231.48-24Q232.16-24.60 233.04-24.60L233.04-24.60Q233.92-24.60 234.58-24Q235.24-23.40 235.24-22.52L235.24-22.52Q235.24-21.64 234.58-21.04Q233.92-20.44 233.04-20.44L233.04-20.44Q232.16-20.44 231.48-21.04Q230.80-21.64 230.80-22.52L230.80-22.52Z M258.64-16.56L249.24-3.08L258.48-3.08L258.48 0L243.16 0L252.56-13.52L246.84-13.52Q245.52-13.52 244.68-14.30Q243.84-15.08 243.84-16.56L243.84-16.56L243.84-18.16L246.68-18.16L246.68-17.64Q246.68-17 246.98-16.78Q247.28-16.56 248.04-16.56L248.04-16.56L258.64-16.56Z M275.56-2.80Q277.64-2.80 279.60-4.24L279.60-4.24L281.32-1.48Q280-0.60 278.46-0.10Q276.92 0.40 275.48 0.40L275.48 0.40Q272.72 0.40 270.66-0.74Q268.60-1.88 267.48-3.88Q266.36-5.88 266.36-8.40L266.36-8.40Q266.36-10.84 267.58-12.86Q268.80-14.88 270.92-16.06Q273.04-17.24 275.56-17.24L275.56-17.24Q278.80-17.24 280.98-15.34Q283.16-13.44 283.96-10.04L283.96-10.04L270.84-5.44Q271.56-4.20 272.78-3.50Q274-2.80 275.56-2.80L275.56-2.80ZM275.28-14.28Q273-14.28 271.52-12.68Q270.04-11.08 270.04-8.60L270.04-8.60Q270.04-8 270.08-7.68L270.08-7.68L279.72-11.24Q279.12-12.60 278.02-13.44Q276.92-14.28 275.28-14.28L275.28-14.28Z M321.56-16.56L325-16.56L314.32 7.96L310.64 7.96L314.44-0.56L306.76-16.56L310.96-16.56L316.32-4.76L321.56-16.56Z M331.04-8.44Q331.04-10.88 332.22-12.90Q333.40-14.92 335.50-16.08Q337.60-17.24 340.24-17.24L340.24-17.24Q342.88-17.24 344.94-16.08Q347-14.92 348.14-12.92Q349.28-10.92 349.28-8.44L349.28-8.44Q349.28-5.96 348.14-3.94Q347-1.92 344.92-0.76Q342.84 0.40 340.16 0.40L340.16 0.40Q337.56 0.40 335.48-0.70Q333.40-1.80 332.22-3.80Q331.04-5.80 331.04-8.44L331.04-8.44ZM334.80-8.40Q334.80-6.84 335.50-5.52Q336.20-4.20 337.42-3.44Q338.64-2.68 340.12-2.68L340.12-2.68Q342.44-2.68 343.96-4.32Q345.48-5.96 345.48-8.40L345.48-8.40Q345.48-10.84 343.96-12.50Q342.44-14.16 340.12-14.16L340.12-14.16Q338.60-14.16 337.40-13.38Q336.20-12.60 335.50-11.28Q334.80-9.96 334.80-8.40L334.80-8.40Z M369.96-16.56L373.68-16.56L373.68 0L370.32 0L370.08-3.16Q369.24-1.48 367.48-0.42Q365.72 0.64 363.56 0.64L363.56 0.64Q361.28 0.64 359.82-0.74Q358.36-2.12 358.28-4.32L358.28-4.32L358.28-16.56L362-16.56L362-5.64Q362.08-4.24 362.82-3.42Q363.56-2.60 365.04-2.56L365.04-2.56Q366.40-2.56 367.52-3.38Q368.64-4.20 369.30-5.64Q369.96-7.08 369.96-8.84L369.96-8.84L369.96-16.56Z M387.76-12.64Q388.40-14 389.58-15.04Q390.76-16.08 392.08-16.64Q393.40-17.20 394.40-17.24L394.40-17.24L394.24-13.52Q392.44-13.60 390.98-12.80Q389.52-12 388.70-10.58Q387.88-9.16 387.88-7.56L387.88-7.56L387.88 0L384.16 0L384.16-16.56L387.48-16.56L387.76-12.64Z M421.44-23.84L425.20-23.84L425.20-16.52L429.72-16.52L429.72-13.56L425.20-13.56L425.20 0L421.44 0L421.44-13.56L418.40-13.56L418.40-16.52L421.44-16.52L421.44-23.84Z M441.84-12.64Q442.48-14 443.66-15.04Q444.84-16.08 446.16-16.64Q447.48-17.20 448.48-17.24L448.48-17.24L448.32-13.52Q446.52-13.60 445.06-12.80Q443.60-12 442.78-10.58Q441.96-9.16 441.96-7.56L441.96-7.56L441.96 0L438.24 0L438.24-16.56L441.56-16.56L441.84-12.64Z M470.44-16.56L473.88-16.56L473.88 0L470.16 0L470.16-2.72Q469.28-1.56 467.60-0.58Q465.92 0.40 463.80 0.40L463.80 0.40Q461.44 0.40 459.54-0.62Q457.64-1.64 456.54-3.60Q455.44-5.56 455.44-8.28L455.44-8.28Q455.44-11 456.58-13.02Q457.72-15.04 459.66-16.14Q461.60-17.24 463.96-17.24L463.96-17.24Q466.08-17.24 467.64-16.32Q469.20-15.40 470.16-13.92L470.16-13.92L470.44-16.56ZM464.80-2.68Q466.84-2.68 468.30-3.82Q469.76-4.96 470.16-6.92L470.16-6.92L470.16-10.20Q469.68-11.96 468.16-13.06Q466.64-14.16 464.68-14.16L464.68-14.16Q463.20-14.16 461.94-13.44Q460.68-12.72 459.94-11.42Q459.20-10.12 459.20-8.48L459.20-8.48Q459.20-6.88 459.96-5.56Q460.72-4.24 462.00-3.46Q463.28-2.68 464.80-2.68L464.80-2.68Z M497.92-31L501.64-31L501.64 0L497.88 0L497.88-2.60Q496.68-1.20 494.94-0.40Q493.20 0.40 491.12 0.40L491.12 0.40Q488.80 0.40 486.92-0.72Q485.04-1.84 483.98-3.86Q482.92-5.88 482.92-8.52L482.92-8.52Q482.92-11.20 484.04-13.18Q485.16-15.16 487.12-16.20Q489.08-17.24 491.56-17.24L491.56-17.24Q493.44-17.24 495.18-16.46Q496.92-15.68 497.92-14.32L497.92-14.32L497.92-31ZM492.28-2.80Q494.44-2.80 495.94-3.96Q497.44-5.12 497.88-7.08L497.88-7.08L497.88-10.20Q497.40-12 495.84-13.14Q494.28-14.28 492.28-14.28L492.28-14.28Q490.76-14.28 489.48-13.54Q488.20-12.80 487.44-11.50Q486.68-10.20 486.68-8.56L486.68-8.56Q486.68-6.96 487.44-5.64Q488.20-4.32 489.48-3.56Q490.76-2.80 492.28-2.80L492.28-2.80Z M519.84-2.80Q521.92-2.80 523.88-4.24L523.88-4.24L525.60-1.48Q524.28-0.60 522.74-0.10Q521.20 0.40 519.76 0.40L519.76 0.40Q517 0.40 514.94-0.74Q512.88-1.88 511.76-3.88Q510.64-5.88 510.64-8.40L510.64-8.40Q510.64-10.84 511.86-12.86Q513.08-14.88 515.20-16.06Q517.32-17.24 519.84-17.24L519.84-17.24Q523.08-17.24 525.26-15.34Q527.44-13.44 528.24-10.04L528.24-10.04L515.12-5.44Q515.84-4.20 517.06-3.50Q518.28-2.80 519.84-2.80L519.84-2.80ZM519.56-14.28Q517.28-14.28 515.80-12.68Q514.32-11.08 514.32-8.60L514.32-8.60Q514.32-8 514.36-7.68L514.36-7.68L524-11.24Q523.40-12.60 522.30-13.44Q521.20-14.28 519.56-14.28L519.56-14.28Z M541.56 0.36Q539.72 0.36 538.06-0.28Q536.40-0.92 535.36-2.16L535.36-2.16L536.96-4.32Q537.96-3.36 539.06-2.84Q540.16-2.32 541.24-2.32L541.24-2.32Q542.56-2.32 543.40-2.84Q544.24-3.36 544.24-4.44L544.24-4.44Q544.24-5.28 543.72-5.80Q543.20-6.32 542.54-6.56Q541.88-6.80 540.32-7.28L540.32-7.28Q536.08-8.64 536.08-12.12L536.08-12.12Q536.08-14.20 537.62-15.68Q539.16-17.16 541.92-17.16L541.92-17.16Q543.68-17.16 545.04-16.72Q546.40-16.28 547.56-15.32L547.56-15.32L546.08-13.04Q545.44-13.72 544.46-14.12Q543.48-14.52 542.60-14.56L542.60-14.56Q541.48-14.56 540.68-14.02Q539.88-13.48 539.88-12.56L539.88-12.56Q539.88-11.80 540.40-11.30Q540.92-10.80 541.48-10.58Q542.04-10.36 543.68-9.84L543.68-9.84Q545.72-9.16 546.86-8.08Q548-7 548-5.16L548-5.16Q548-2.76 546.32-1.20Q544.64 0.36 541.56 0.36L541.56 0.36Z"/></g>
</svg>
</g><g opacity="1" transform="rotate(0 75.3898 319.3006)">
<svg width="368.7356" height="40" x="75.3898" y="319.3006" version="1.1" preserveAspectRatio="none" viewBox="1.04 -29.2 273.59999999999997 29.679999999999996">
  <g transform="matrix(1 0 0 1 0 0)" class="companyName"><path id="id-D6z1nYkh11" d="M25.20-20.20L24.20-20.20Q23.36-22.80 22.62-24.12Q21.88-25.44 20.56-26.12Q19.24-26.80 16.84-26.80L16.84-26.80L11.64-26.80L11.64-14.92L21.64-14.92L21.64-13.72L11.64-13.72L11.64-2.04Q11.64-1.60 11.82-1.44Q12-1.28 12.60-1.16L12.60-1.16L14.32-0.80L14.32 0L1.04 0L1.04-0.80L2.52-1.12Q3.12-1.24 3.30-1.40Q3.48-1.56 3.48-2L3.48-2L3.48-26Q3.48-26.44 3.30-26.60Q3.12-26.76 2.52-26.88L2.52-26.88L1.04-27.20L1.04-28L25.20-28L25.20-20.20Z M27.92 0L27.92-0.72L29.32-1.04Q29.92-1.16 30.10-1.32Q30.28-1.48 30.28-1.92L30.28-1.92L30.28-26.08Q30.28-26.52 30.10-26.68Q29.92-26.84 29.32-26.96L29.32-26.96L27.92-27.28L27.92-28L37.52-29.20L38.28-29.20L38.28-1.92Q38.28-1.48 38.46-1.32Q38.64-1.16 39.24-1.04L39.24-1.04L40.64-0.72L40.64 0L27.92 0Z M51.84-10.24Q51.88-5.80 53.26-3.48Q54.64-1.16 58.44-1.16L58.44-1.16Q60.32-1.16 61.78-1.72Q63.24-2.28 64.80-3.32L64.80-3.32L65.32-2.56Q61.60 0.48 55.48 0.48L55.48 0.48Q49.96 0.48 46.78-2.18Q43.60-4.84 43.60-9.96L43.60-9.96Q43.60-14.80 46.84-17.36Q50.08-19.92 55.92-19.92L55.92-19.92Q59.24-19.92 61.52-18.88Q63.80-17.84 64.90-16.10Q66-14.36 66-12.24L66-12.24Q66-11.16 65.80-10.24L65.80-10.24L51.84-10.24ZM55.68-18.96Q53.48-18.96 52.68-17.12Q51.88-15.28 51.84-11.28L51.84-11.28L58.56-11.28L58.56-14.28Q58.56-16.72 57.98-17.84Q57.40-18.96 55.68-18.96L55.68-18.96Z M86.16-17.92L92.72-26.12Q92.92-26.40 92.92-26.56L92.92-26.56Q92.92-26.76 92.76-26.90Q92.60-27.04 92.32-27.08L92.32-27.08L90.56-27.24L90.56-28L97.60-28L97.60-27.20L96.08-27.08Q95.40-27.04 95.10-26.84Q94.80-26.64 94.32-26.08L94.32-26.08L86.88-16.88L96.96-1.92Q97.32-1.40 97.56-1.20Q97.80-1 98.24-0.96L98.24-0.96L99.84-0.80L99.84 0L85.96 0L85.96-0.80L87.56-0.96Q88.08-1 88.08-1.36L88.08-1.36Q88.08-1.68 87.84-1.96L87.84-1.96L81.44-11.44L73.96-1.88Q73.76-1.60 73.76-1.44L73.76-1.44Q73.76-1.24 73.92-1.10Q74.08-0.96 74.36-0.92L74.36-0.92L76.12-0.76L76.12 0L69.08 0L69.08-0.80L70.60-0.92Q71.28-0.96 71.62-1.20Q71.96-1.44 72.36-1.92L72.36-1.92L80.76-12.48L71.60-26.08Q71.24-26.60 71-26.80Q70.76-27 70.32-27.04L70.32-27.04L68.72-27.20L68.72-28L82.60-28L82.60-27.20L81-27.04Q80.48-27 80.48-26.64L80.48-26.64Q80.48-26.36 80.72-26.04L80.72-26.04L86.16-17.92Z M127.60-9.72Q127.60-4.56 124.38-2.04Q121.16 0.48 115.12 0.48L115.12 0.48Q109.08 0.48 105.86-2.04Q102.64-4.56 102.64-9.72L102.64-9.72Q102.64-14.88 105.86-17.40Q109.08-19.92 115.12-19.92L115.12-19.92Q121.16-19.92 124.38-17.40Q127.60-14.88 127.60-9.72L127.60-9.72ZM110.96-9.72Q110.96-6.16 111.30-4.24Q111.64-2.32 112.52-1.44Q113.40-0.56 115.12-0.56L115.12-0.56Q116.84-0.56 117.72-1.44Q118.60-2.32 118.94-4.24Q119.28-6.16 119.28-9.72L119.28-9.72Q119.28-13.28 118.94-15.20Q118.60-17.12 117.72-18Q116.84-18.88 115.12-18.88L115.12-18.88Q113.40-18.88 112.52-18Q111.64-17.12 111.30-15.20Q110.96-13.28 110.96-9.72L110.96-9.72Z M159.76-2Q159.76-1.56 159.94-1.40Q160.12-1.24 160.72-1.12L160.72-1.12L162.20-0.80L162.20 0L149.16 0L149.16-0.80L150.64-1.12Q151.24-1.24 151.42-1.40Q151.60-1.56 151.60-2L151.60-2L151.60-26.88L150.68-26.88Q148.24-26.88 146.90-26.08Q145.56-25.28 144.86-24Q144.16-22.72 143.12-19.92L143.12-19.92L142.24-19.92L142.24-28L169.12-28L169.12-19.92L168.24-19.92Q167.20-22.72 166.50-24Q165.80-25.28 164.46-26.08Q163.12-26.88 160.68-26.88L160.68-26.88L159.76-26.88L159.76-2Z M181.40-16.24Q184.88-19.80 188.48-19.80L188.48-19.80Q189.80-19.80 190.56-19.48L190.56-19.48L189.96-13.24L189.68-13.24L181.48-15.04L181.48-1.92Q181.48-1.48 181.66-1.30Q181.84-1.12 182.40-1L182.40-1L183.76-0.72L183.76 0L171.12 0L171.12-0.72L172.52-1.04Q173.12-1.16 173.30-1.32Q173.48-1.48 173.48-1.92L173.48-1.92L173.48-17.04Q173.48-17.48 173.30-17.64Q173.12-17.80 172.52-17.92L172.52-17.92L171.12-18.24L171.12-18.96L180.72-20.16L181.40-20.16L181.40-16.24Z M208.48 0Q207.36 0 206.90-0.46Q206.44-0.92 206.44-2L206.44-2L206.44-2.20Q203.76 0.40 198.80 0.40L198.80 0.40Q196.20 0.40 194.74-0.78Q193.28-1.96 193.28-4.44L193.28-4.44Q193.28-6.92 194.74-8.32Q196.20-9.72 199-10.32Q201.80-10.92 206.44-11.04L206.44-11.04L206.44-13.96Q206.44-16.20 205.56-17.18Q204.68-18.16 202.48-18.16L202.48-18.16Q200.64-18.16 199.06-17.66Q197.48-17.16 195.84-16.16L195.84-16.16L195.32-16.92Q197.24-18.28 199.94-19.10Q202.64-19.92 206-19.92L206-19.92Q210.52-19.92 212.44-18.14Q214.36-16.36 214.36-13L214.36-13L214.36-1.92Q214.36-1.48 214.54-1.32Q214.72-1.16 215.32-1.04L215.32-1.04L216.72-0.72L216.72 0L208.48 0ZM203.28-2.12Q205-2.12 206.44-3.48L206.44-3.48L206.44-9.96Q204.20-9.80 203.04-9.26Q201.88-8.72 201.46-7.72Q201.04-6.72 201.04-5L201.04-5Q201.04-3.48 201.58-2.80Q202.12-2.12 203.28-2.12L203.28-2.12Z M218.56-0.80L220.04-1.12Q220.64-1.24 220.82-1.40Q221.00-1.56 221.00-2L221.00-2L221.00-26Q221.00-26.44 220.82-26.60Q220.64-26.76 220.04-26.88L220.04-26.88L218.56-27.20L218.56-28L230.80-28Q239.20-28 243.60-24.84Q248.00-21.68 248.00-14L248.00-14Q248.00-6.32 243.60-3.16Q239.20 0 230.80 0L230.80 0L218.56 0L218.56-0.80ZM229.16-26.80L229.16-1.20L230.80-1.20Q234.12-1.20 235.92-2.38Q237.72-3.56 238.44-6.28Q239.16-9 239.16-14L239.16-14Q239.16-19 238.44-21.72Q237.72-24.44 235.92-25.62Q234.12-26.80 230.80-26.80L230.80-26.80L229.16-26.80Z M260.48-10.24Q260.52-5.80 261.90-3.48Q263.28-1.16 267.08-1.16L267.08-1.16Q268.96-1.16 270.42-1.72Q271.88-2.28 273.44-3.32L273.44-3.32L273.96-2.56Q270.24 0.48 264.12 0.48L264.12 0.48Q258.60 0.48 255.42-2.18Q252.24-4.84 252.24-9.96L252.24-9.96Q252.24-14.80 255.48-17.36Q258.72-19.92 264.56-19.92L264.56-19.92Q267.88-19.92 270.16-18.88Q272.44-17.84 273.54-16.10Q274.64-14.36 274.64-12.24L274.64-12.24Q274.64-11.16 274.44-10.24L274.44-10.24L260.48-10.24ZM264.32-18.96Q262.12-18.96 261.32-17.12Q260.52-15.28 260.48-11.28L260.48-11.28L267.20-11.28L267.20-14.28Q267.20-16.72 266.62-17.84Q266.04-18.96 264.32-18.96L264.32-18.96Z"/></g>
</svg>
</g><g opacity="1" transform="rotate(0 167.5737 104.9328)">
<svg width="184.3678" height="184.3678" x="167.5737" y="104.9328" version="1.1" preserveAspectRatio="none" viewBox="5 5 90 90">
  <g transform="matrix(1 0 0 1 0 0)" class="icon1"><path d="M 83.545454,39.599046 95,45.821994 95,81.984685 83.545454,75.761737 z" color="#000"></path><path d="m 67.836364,17.400703 11.454544,6.222948 0,60.964097 -11.454544,-6.222947 z" color="#000"></path><path d="m 36.418181,5 11.454546,6.222948 0,78.570926 -11.454546,-6.222948 z" color="#000"></path><path d="m 52.127273,34.39292 11.454545,6.222947 0,46.574944 -11.454545,-6.222947 z" color="#000"></path><path d="M 5,55.832036 16.454545,62.054983 16.454545,95 5,88.777052 z" color="#000"></path><path d="m 20.709091,30.416018 11.454544,6.222948 0,55.757971 -11.454544,-6.222948 z" color="#000"></path></g>
</svg>
</g></svg></svg>